<mxfile host="app.diagrams.net" modified="2023-06-27T07:41:40.522Z" agent="Mozilla/5.0 (Windows NT 10.0; Win64; x64) AppleWebKit/537.36 (KHTML, like Gecko) Chrome/114.0.0.0 Safari/537.36" etag="DcaQCmsy4z9AzI1-K-t9" version="21.5.1" type="device">
  <diagram name="페이지-1" id="uAUPfAkvsHp7NEdh4ipN">
    <mxGraphModel dx="2059" dy="1119" grid="1" gridSize="10" guides="1" tooltips="1" connect="1" arrows="1" fold="1" page="1" pageScale="1" pageWidth="4681" pageHeight="3300" math="0" shadow="0">
      <root>
        <mxCell id="0" />
        <mxCell id="1" parent="0" />
        <mxCell id="ew8_SK26b3w4MZlUEGP9-13" style="edgeStyle=orthogonalEdgeStyle;rounded=0;orthogonalLoop=1;jettySize=auto;html=1;entryX=0.5;entryY=0;entryDx=0;entryDy=0;" edge="1" parent="1" source="ew8_SK26b3w4MZlUEGP9-4" target="ew8_SK26b3w4MZlUEGP9-21">
          <mxGeometry relative="1" as="geometry">
            <mxPoint x="220" y="370" as="targetPoint" />
          </mxGeometry>
        </mxCell>
        <mxCell id="ew8_SK26b3w4MZlUEGP9-14" style="edgeStyle=orthogonalEdgeStyle;rounded=0;orthogonalLoop=1;jettySize=auto;html=1;" edge="1" parent="1" source="ew8_SK26b3w4MZlUEGP9-4" target="ew8_SK26b3w4MZlUEGP9-7">
          <mxGeometry relative="1" as="geometry" />
        </mxCell>
        <mxCell id="ew8_SK26b3w4MZlUEGP9-15" style="edgeStyle=orthogonalEdgeStyle;rounded=0;orthogonalLoop=1;jettySize=auto;html=1;" edge="1" parent="1" source="ew8_SK26b3w4MZlUEGP9-4" target="ew8_SK26b3w4MZlUEGP9-8">
          <mxGeometry relative="1" as="geometry" />
        </mxCell>
        <mxCell id="ew8_SK26b3w4MZlUEGP9-16" style="edgeStyle=orthogonalEdgeStyle;rounded=0;orthogonalLoop=1;jettySize=auto;html=1;entryX=0.5;entryY=0;entryDx=0;entryDy=0;" edge="1" parent="1" source="ew8_SK26b3w4MZlUEGP9-4" target="ew8_SK26b3w4MZlUEGP9-9">
          <mxGeometry relative="1" as="geometry" />
        </mxCell>
        <mxCell id="ew8_SK26b3w4MZlUEGP9-17" style="edgeStyle=orthogonalEdgeStyle;rounded=0;orthogonalLoop=1;jettySize=auto;html=1;entryX=0.5;entryY=0;entryDx=0;entryDy=0;" edge="1" parent="1" source="ew8_SK26b3w4MZlUEGP9-4" target="ew8_SK26b3w4MZlUEGP9-10">
          <mxGeometry relative="1" as="geometry" />
        </mxCell>
        <mxCell id="ew8_SK26b3w4MZlUEGP9-4" value="회원데이터" style="whiteSpace=wrap;html=1;align=center;" vertex="1" parent="1">
          <mxGeometry x="390" y="240" width="100" height="40" as="geometry" />
        </mxCell>
        <mxCell id="ew8_SK26b3w4MZlUEGP9-7" value="PW" style="ellipse;whiteSpace=wrap;html=1;align=center;" vertex="1" parent="1">
          <mxGeometry x="280" y="370" width="100" height="40" as="geometry" />
        </mxCell>
        <mxCell id="ew8_SK26b3w4MZlUEGP9-8" value="email" style="ellipse;whiteSpace=wrap;html=1;align=center;" vertex="1" parent="1">
          <mxGeometry x="390" y="370" width="100" height="40" as="geometry" />
        </mxCell>
        <mxCell id="ew8_SK26b3w4MZlUEGP9-9" value="tel" style="ellipse;whiteSpace=wrap;html=1;align=center;" vertex="1" parent="1">
          <mxGeometry x="500" y="370" width="100" height="40" as="geometry" />
        </mxCell>
        <mxCell id="ew8_SK26b3w4MZlUEGP9-10" value="name" style="ellipse;whiteSpace=wrap;html=1;align=center;" vertex="1" parent="1">
          <mxGeometry x="610" y="370" width="100" height="40" as="geometry" />
        </mxCell>
        <mxCell id="ew8_SK26b3w4MZlUEGP9-40" style="edgeStyle=orthogonalEdgeStyle;rounded=0;orthogonalLoop=1;jettySize=auto;html=1;" edge="1" parent="1" source="ew8_SK26b3w4MZlUEGP9-19" target="ew8_SK26b3w4MZlUEGP9-34">
          <mxGeometry relative="1" as="geometry" />
        </mxCell>
        <mxCell id="ew8_SK26b3w4MZlUEGP9-41" style="edgeStyle=orthogonalEdgeStyle;rounded=0;orthogonalLoop=1;jettySize=auto;html=1;" edge="1" parent="1" source="ew8_SK26b3w4MZlUEGP9-19" target="ew8_SK26b3w4MZlUEGP9-33">
          <mxGeometry relative="1" as="geometry" />
        </mxCell>
        <mxCell id="ew8_SK26b3w4MZlUEGP9-42" style="edgeStyle=orthogonalEdgeStyle;rounded=0;orthogonalLoop=1;jettySize=auto;html=1;" edge="1" parent="1" source="ew8_SK26b3w4MZlUEGP9-19" target="ew8_SK26b3w4MZlUEGP9-35">
          <mxGeometry relative="1" as="geometry" />
        </mxCell>
        <mxCell id="ew8_SK26b3w4MZlUEGP9-43" style="edgeStyle=orthogonalEdgeStyle;rounded=0;orthogonalLoop=1;jettySize=auto;html=1;" edge="1" parent="1" source="ew8_SK26b3w4MZlUEGP9-19" target="ew8_SK26b3w4MZlUEGP9-36">
          <mxGeometry relative="1" as="geometry" />
        </mxCell>
        <mxCell id="ew8_SK26b3w4MZlUEGP9-44" style="edgeStyle=orthogonalEdgeStyle;rounded=0;orthogonalLoop=1;jettySize=auto;html=1;" edge="1" parent="1" source="ew8_SK26b3w4MZlUEGP9-19" target="ew8_SK26b3w4MZlUEGP9-37">
          <mxGeometry relative="1" as="geometry" />
        </mxCell>
        <mxCell id="ew8_SK26b3w4MZlUEGP9-45" style="edgeStyle=orthogonalEdgeStyle;rounded=0;orthogonalLoop=1;jettySize=auto;html=1;entryX=0.5;entryY=0;entryDx=0;entryDy=0;" edge="1" parent="1" source="ew8_SK26b3w4MZlUEGP9-19" target="ew8_SK26b3w4MZlUEGP9-38">
          <mxGeometry relative="1" as="geometry" />
        </mxCell>
        <mxCell id="ew8_SK26b3w4MZlUEGP9-46" style="edgeStyle=orthogonalEdgeStyle;rounded=0;orthogonalLoop=1;jettySize=auto;html=1;entryX=0.5;entryY=0;entryDx=0;entryDy=0;" edge="1" parent="1" source="ew8_SK26b3w4MZlUEGP9-19" target="ew8_SK26b3w4MZlUEGP9-39">
          <mxGeometry relative="1" as="geometry" />
        </mxCell>
        <mxCell id="ew8_SK26b3w4MZlUEGP9-52" style="edgeStyle=orthogonalEdgeStyle;rounded=0;orthogonalLoop=1;jettySize=auto;html=1;" edge="1" parent="1" source="ew8_SK26b3w4MZlUEGP9-19" target="ew8_SK26b3w4MZlUEGP9-51">
          <mxGeometry relative="1" as="geometry" />
        </mxCell>
        <mxCell id="ew8_SK26b3w4MZlUEGP9-19" value="게시글 데이터" style="shape=rhombus;perimeter=rhombusPerimeter;whiteSpace=wrap;html=1;align=center;" vertex="1" parent="1">
          <mxGeometry x="510" y="640" width="120" height="60" as="geometry" />
        </mxCell>
        <mxCell id="ew8_SK26b3w4MZlUEGP9-21" value="ID" style="ellipse;whiteSpace=wrap;html=1;align=center;fontStyle=4;" vertex="1" parent="1">
          <mxGeometry x="170" y="370" width="100" height="40" as="geometry" />
        </mxCell>
        <mxCell id="ew8_SK26b3w4MZlUEGP9-24" style="edgeStyle=orthogonalEdgeStyle;rounded=0;orthogonalLoop=1;jettySize=auto;html=1;entryX=0.5;entryY=0;entryDx=0;entryDy=0;" edge="1" parent="1" source="ew8_SK26b3w4MZlUEGP9-23" target="ew8_SK26b3w4MZlUEGP9-26">
          <mxGeometry relative="1" as="geometry">
            <mxPoint x="1460" y="400" as="targetPoint" />
          </mxGeometry>
        </mxCell>
        <mxCell id="ew8_SK26b3w4MZlUEGP9-27" style="edgeStyle=orthogonalEdgeStyle;rounded=0;orthogonalLoop=1;jettySize=auto;html=1;entryX=0.5;entryY=0;entryDx=0;entryDy=0;" edge="1" parent="1" source="ew8_SK26b3w4MZlUEGP9-23" target="ew8_SK26b3w4MZlUEGP9-25">
          <mxGeometry relative="1" as="geometry" />
        </mxCell>
        <mxCell id="ew8_SK26b3w4MZlUEGP9-29" style="edgeStyle=orthogonalEdgeStyle;rounded=0;orthogonalLoop=1;jettySize=auto;html=1;" edge="1" parent="1" source="ew8_SK26b3w4MZlUEGP9-23" target="ew8_SK26b3w4MZlUEGP9-28">
          <mxGeometry relative="1" as="geometry" />
        </mxCell>
        <mxCell id="ew8_SK26b3w4MZlUEGP9-31" style="edgeStyle=orthogonalEdgeStyle;rounded=0;orthogonalLoop=1;jettySize=auto;html=1;" edge="1" parent="1" source="ew8_SK26b3w4MZlUEGP9-23" target="ew8_SK26b3w4MZlUEGP9-30">
          <mxGeometry relative="1" as="geometry" />
        </mxCell>
        <mxCell id="ew8_SK26b3w4MZlUEGP9-23" value="마커 데이터" style="whiteSpace=wrap;html=1;align=center;" vertex="1" parent="1">
          <mxGeometry x="1473" y="300" width="100" height="40" as="geometry" />
        </mxCell>
        <mxCell id="ew8_SK26b3w4MZlUEGP9-25" value="title" style="ellipse;whiteSpace=wrap;html=1;align=center;" vertex="1" parent="1">
          <mxGeometry x="1410" y="400" width="100" height="40" as="geometry" />
        </mxCell>
        <mxCell id="ew8_SK26b3w4MZlUEGP9-26" value="마커SEQ" style="ellipse;whiteSpace=wrap;html=1;align=center;fontStyle=4;" vertex="1" parent="1">
          <mxGeometry x="1290" y="400" width="100" height="40" as="geometry" />
        </mxCell>
        <mxCell id="ew8_SK26b3w4MZlUEGP9-28" value="위도" style="ellipse;whiteSpace=wrap;html=1;align=center;" vertex="1" parent="1">
          <mxGeometry x="1530" y="400" width="100" height="40" as="geometry" />
        </mxCell>
        <mxCell id="ew8_SK26b3w4MZlUEGP9-30" value="경도" style="ellipse;whiteSpace=wrap;html=1;align=center;" vertex="1" parent="1">
          <mxGeometry x="1650" y="400" width="100" height="40" as="geometry" />
        </mxCell>
        <mxCell id="ew8_SK26b3w4MZlUEGP9-33" value="작성자ID" style="ellipse;whiteSpace=wrap;html=1;align=center;" vertex="1" parent="1">
          <mxGeometry x="232.5" y="770" width="100" height="40" as="geometry" />
        </mxCell>
        <mxCell id="ew8_SK26b3w4MZlUEGP9-34" value="게시글 SEQ" style="ellipse;whiteSpace=wrap;html=1;align=center;fontStyle=4;" vertex="1" parent="1">
          <mxGeometry x="122.5" y="770" width="100" height="40" as="geometry" />
        </mxCell>
        <mxCell id="ew8_SK26b3w4MZlUEGP9-35" value="마커SEQ" style="ellipse;whiteSpace=wrap;html=1;align=center;" vertex="1" parent="1">
          <mxGeometry x="342.5" y="770" width="100" height="40" as="geometry" />
        </mxCell>
        <mxCell id="ew8_SK26b3w4MZlUEGP9-36" value="제목" style="ellipse;whiteSpace=wrap;html=1;align=center;" vertex="1" parent="1">
          <mxGeometry x="582.5" y="770" width="100" height="40" as="geometry" />
        </mxCell>
        <mxCell id="ew8_SK26b3w4MZlUEGP9-37" value="내용" style="ellipse;whiteSpace=wrap;html=1;align=center;" vertex="1" parent="1">
          <mxGeometry x="695.5" y="770" width="100" height="40" as="geometry" />
        </mxCell>
        <mxCell id="ew8_SK26b3w4MZlUEGP9-38" value="하트" style="ellipse;whiteSpace=wrap;html=1;align=center;" vertex="1" parent="1">
          <mxGeometry x="807.5" y="770" width="100" height="40" as="geometry" />
        </mxCell>
        <mxCell id="ew8_SK26b3w4MZlUEGP9-39" value="하트 데이터" style="ellipse;whiteSpace=wrap;html=1;align=center;" vertex="1" parent="1">
          <mxGeometry x="917.5" y="770" width="100" height="40" as="geometry" />
        </mxCell>
        <mxCell id="ew8_SK26b3w4MZlUEGP9-48" value="" style="edgeStyle=entityRelationEdgeStyle;fontSize=12;html=1;endArrow=ERzeroToMany;endFill=1;rounded=0;exitX=0.5;exitY=0;exitDx=0;exitDy=0;entryX=0.5;entryY=0;entryDx=0;entryDy=0;" edge="1" parent="1" source="ew8_SK26b3w4MZlUEGP9-4" target="ew8_SK26b3w4MZlUEGP9-19">
          <mxGeometry width="100" height="100" relative="1" as="geometry">
            <mxPoint x="540" y="330" as="sourcePoint" />
            <mxPoint x="640" y="230" as="targetPoint" />
          </mxGeometry>
        </mxCell>
        <mxCell id="ew8_SK26b3w4MZlUEGP9-49" value="" style="edgeStyle=entityRelationEdgeStyle;fontSize=12;html=1;endArrow=ERmandOne;startArrow=ERmandOne;rounded=0;exitX=0.5;exitY=0;exitDx=0;exitDy=0;entryX=0.5;entryY=0;entryDx=0;entryDy=0;" edge="1" parent="1" source="ew8_SK26b3w4MZlUEGP9-23" target="ew8_SK26b3w4MZlUEGP9-19">
          <mxGeometry width="100" height="100" relative="1" as="geometry">
            <mxPoint x="970" y="310" as="sourcePoint" />
            <mxPoint x="1070" y="210" as="targetPoint" />
          </mxGeometry>
        </mxCell>
        <mxCell id="ew8_SK26b3w4MZlUEGP9-55" style="edgeStyle=orthogonalEdgeStyle;rounded=0;orthogonalLoop=1;jettySize=auto;html=1;" edge="1" parent="1" source="ew8_SK26b3w4MZlUEGP9-50" target="ew8_SK26b3w4MZlUEGP9-53">
          <mxGeometry relative="1" as="geometry" />
        </mxCell>
        <mxCell id="ew8_SK26b3w4MZlUEGP9-56" style="edgeStyle=orthogonalEdgeStyle;rounded=0;orthogonalLoop=1;jettySize=auto;html=1;entryX=0.5;entryY=0;entryDx=0;entryDy=0;" edge="1" parent="1" source="ew8_SK26b3w4MZlUEGP9-50" target="ew8_SK26b3w4MZlUEGP9-54">
          <mxGeometry relative="1" as="geometry" />
        </mxCell>
        <mxCell id="ew8_SK26b3w4MZlUEGP9-58" style="edgeStyle=orthogonalEdgeStyle;rounded=0;orthogonalLoop=1;jettySize=auto;html=1;" edge="1" parent="1" source="ew8_SK26b3w4MZlUEGP9-50" target="ew8_SK26b3w4MZlUEGP9-57">
          <mxGeometry relative="1" as="geometry" />
        </mxCell>
        <mxCell id="ew8_SK26b3w4MZlUEGP9-50" value="하트 정보" style="whiteSpace=wrap;html=1;align=center;" vertex="1" parent="1">
          <mxGeometry x="295" y="950" width="100" height="40" as="geometry" />
        </mxCell>
        <mxCell id="ew8_SK26b3w4MZlUEGP9-51" value="마커Title" style="ellipse;whiteSpace=wrap;html=1;align=center;" vertex="1" parent="1">
          <mxGeometry x="462.5" y="770" width="100" height="40" as="geometry" />
        </mxCell>
        <mxCell id="ew8_SK26b3w4MZlUEGP9-53" value="게시글 SEQ" style="ellipse;whiteSpace=wrap;html=1;align=center;" vertex="1" parent="1">
          <mxGeometry x="295" y="1035" width="100" height="40" as="geometry" />
        </mxCell>
        <mxCell id="ew8_SK26b3w4MZlUEGP9-54" value="회원ID" style="ellipse;whiteSpace=wrap;html=1;align=center;" vertex="1" parent="1">
          <mxGeometry x="425" y="1035" width="100" height="40" as="geometry" />
        </mxCell>
        <mxCell id="ew8_SK26b3w4MZlUEGP9-57" value="하트 SEQ" style="ellipse;whiteSpace=wrap;html=1;align=center;fontStyle=4;" vertex="1" parent="1">
          <mxGeometry x="180" y="1035" width="100" height="40" as="geometry" />
        </mxCell>
        <mxCell id="ew8_SK26b3w4MZlUEGP9-59" value="" style="edgeStyle=entityRelationEdgeStyle;fontSize=12;html=1;endArrow=ERzeroToMany;endFill=1;rounded=0;exitX=0.5;exitY=0;exitDx=0;exitDy=0;entryX=0;entryY=1;entryDx=0;entryDy=0;" edge="1" parent="1" source="ew8_SK26b3w4MZlUEGP9-50" target="ew8_SK26b3w4MZlUEGP9-19">
          <mxGeometry width="100" height="100" relative="1" as="geometry">
            <mxPoint x="700" y="1020" as="sourcePoint" />
            <mxPoint x="800" y="920" as="targetPoint" />
          </mxGeometry>
        </mxCell>
        <mxCell id="ew8_SK26b3w4MZlUEGP9-61" value="댓글 데이터" style="whiteSpace=wrap;html=1;align=center;" vertex="1" parent="1">
          <mxGeometry x="1350" y="720" width="100" height="40" as="geometry" />
        </mxCell>
      </root>
    </mxGraphModel>
  </diagram>
</mxfile>
